<svg width="218" height="271" viewBox="0 0 218 271" fill="none" xmlns="http://www.w3.org/2000/svg">
<g opacity="0.2">
<path d="M114.351 270.192C168.82 270.192 212.975 265.636 212.975 260.016C212.975 254.396 168.82 249.84 114.351 249.84C59.8822 249.84 15.7266 254.396 15.7266 260.016C15.7266 265.636 59.8822 270.192 114.351 270.192Z" fill="#000072"/>
</g>
<path d="M34.187 80.2727L108.604 57.2898L123.946 108.872L42.2958 122.808L34.187 80.2727Z" fill="#9C674F"/>
<path d="M34.187 80.2727L108.604 57.2898L123.946 108.872L42.2958 122.808L34.187 80.2727Z" fill="#9C674F"/>
<path d="M79.8457 214.627C50.6419 240.002 17.3174 224.981 12.566 215.441C4.88659 200.031 11.5084 175.039 11.6639 174.443L11.6583 174.448C11.4358 174.749 8.06188 179.164 4.55922 176.879C-2.16195 172.485 6.89586 147.094 13.7826 134.332C15.7725 130.648 17.5758 128.015 18.7722 127.248C25.6589 122.808 66.0447 123.248 66.0447 123.248C66.0447 123.248 67.7128 125.414 70.2003 129.124C74.0294 134.835 79.8126 144.208 84.4601 155.002C92.945 174.718 97.6606 199.154 79.8457 214.627Z" fill="#62ED2E"/>
<g opacity="0.6">
<path d="M68.6794 126.885C63.2953 126.849 28.459 126.797 22.1057 130.891C20.9084 131.658 19.1051 134.29 17.1161 137.974C11.2142 148.913 3.71051 169.137 5.92852 177.453C5.47793 177.365 5.02182 177.178 4.5602 176.879C-2.16097 172.485 6.89684 147.094 13.7835 134.332C15.7735 130.648 17.5768 128.015 18.7731 127.248C25.6598 122.808 66.0457 123.248 66.0457 123.248C66.0457 123.248 67.0572 124.559 68.6794 126.885Z" fill="white"/>
</g>
<g opacity="0.3">
<path d="M84.463 155.001C67.2495 154.633 44.3558 154.268 44.3558 154.268C44.3558 154.268 52.3082 205.747 34.8124 213.41C49.3251 205.755 45.8124 175.941 45.8124 175.941H36.2313C36.1798 184.817 34.931 199.063 29.4899 201.026C21.3287 203.969 18.5516 195.777 18.467 195.574C14.2562 182.488 13.722 166.992 13.722 166.992C8.4473 161.547 10.8924 146.078 13.7845 134.332C6.89781 147.094 -2.16 172.485 4.56117 176.879C8.06383 179.164 11.4378 174.749 11.6603 174.448L11.6658 174.443C11.5104 175.039 4.88854 200.03 12.5679 215.441C17.3194 224.981 50.6429 240.003 79.8477 214.627C97.6607 199.154 92.9452 174.718 84.463 155.001Z" fill="#000072"/>
</g>
<path d="M44.1415 230.815C40.0788 230.815 36.5532 230.356 33.7871 229.804C22.9867 227.652 13.4516 222.149 10.5982 216.421C4.77546 204.736 6.68358 188.206 8.30479 179.516C6.77185 179.944 5.07248 179.838 3.35932 178.721C1.11647 177.253 -0.0127652 174.379 0.000108843 170.176C0.0442484 156.496 12.3785 128.756 17.5824 125.401C24.8139 120.737 61.8682 121.003 66.0706 121.049C66.7437 121.057 67.3773 121.372 67.7884 121.906C67.8583 121.997 69.5301 124.172 72.0285 127.9C77.3336 135.807 86.9229 151.577 91.5428 168.367C97.292 189.261 93.8418 205.384 81.2877 216.289C67.9033 227.917 54.335 230.815 44.1415 230.815ZM11.6649 172.248C12.0309 172.248 12.3987 172.339 12.7344 172.526C13.608 173.015 14.0448 174.029 13.7919 174.998C13.5215 176.032 7.35855 200.062 14.534 214.461C16.4173 218.241 24.1049 223.392 34.646 225.492C43.5604 227.268 61.1003 228.002 78.4039 212.968C89.5703 203.269 92.5645 188.656 87.3027 169.533C82.8482 153.345 73.533 138.035 68.376 130.35C66.8504 128.073 65.6301 126.379 64.9368 125.438C49.4594 125.319 24.4672 126.193 19.9641 129.097C16.7465 131.172 4.43889 156.867 4.39659 170.191C4.38832 172.699 4.88673 174.467 5.76309 175.039C7.57465 176.22 9.8699 173.17 9.89289 173.14C9.94807 173.065 10.0069 172.995 10.0713 172.929C10.4989 172.482 11.0791 172.248 11.6649 172.248Z" fill="#000072"/>
<path d="M44.1388 230.43C40.1055 230.43 36.6075 229.973 33.8626 229.427C21.9421 227.052 13.3091 221 10.9431 216.25C3.23613 200.784 9.20049 176.697 9.9058 174C9.915 173.964 9.92511 173.93 9.93707 173.895L19.9485 137.636C20.9232 134.105 24.0295 131.509 27.6775 131.177L70.0386 127.317C70.6998 127.256 71.3398 127.562 71.7095 128.113C77.0016 136 86.567 151.731 91.1723 168.467C96.8782 189.206 93.4685 205.197 81.0358 215.996C67.7378 227.551 54.2606 230.43 44.1388 230.43ZM13.4029 174.965C12.9588 176.686 7.06248 200.331 14.1892 214.632C16.1129 218.494 23.91 223.745 34.5706 225.868C43.5558 227.659 61.2291 228.4 78.6559 213.258C89.9437 203.452 92.9774 188.707 87.6733 169.43C83.3715 153.795 74.5547 138.985 69.291 131.028L28.0049 134.789C25.8512 134.985 24.0185 136.517 23.4429 138.601L13.4158 174.915C13.4131 174.932 13.4085 174.948 13.4029 174.965Z" fill="#000072"/>
<path d="M27.1624 217.001C27.1606 217.001 27.1588 217.001 27.1569 217.001C17.6881 216.996 11.5536 211.371 9.41466 200.734C7.13595 189.364 10.1053 176.096 10.2331 175.537C10.4216 174.712 11.1545 174.126 12.0014 174.126H45.8123C46.7319 174.126 47.5062 174.814 47.6138 175.727C47.7306 176.717 50.356 200.087 40.454 211.224C37.0451 215.057 32.5732 217.001 27.1624 217.001ZM27.1588 213.374C27.1597 213.374 27.1615 213.374 27.1624 213.374C31.5516 213.374 35.011 211.883 37.7394 208.817C45.1861 200.448 44.5498 183.1 44.1534 177.754H13.4875C12.8079 181.407 11.2602 191.48 12.9716 200.021C14.7767 209.002 19.4178 213.37 27.1588 213.374Z" fill="#000072"/>
<path d="M123.947 108.873L42.3454 122.797C42.3297 122.802 42.3141 122.807 42.2939 122.807L38.4905 102.857L35.1902 85.54L34.1851 80.27C34.1906 80.2644 34.1952 80.2644 34.2007 80.2644L54.5077 73.9948L108.605 57.2889L110.165 62.5332L123.947 108.873Z" fill="#FFA64D"/>
<g opacity="0.6">
<path d="M110.164 62.5332L56.974 78.9596L47.1492 81.9905L36.667 85.2292C36.6615 85.2292 36.6569 85.2292 36.6514 85.2347C36.1594 85.323 35.6665 85.426 35.1902 85.54L34.1851 80.27C34.1906 80.2644 34.1952 80.2644 34.2007 80.2644L54.5077 73.9948L108.605 57.2889L110.164 62.5332Z" fill="white"/>
</g>
<path d="M40.6408 125.193L31.8037 78.84L109.994 54.692L126.6 110.522L40.6408 125.193ZM36.5699 81.7063L43.9513 120.423L121.293 107.223L107.214 59.8885L36.5699 81.7063Z" fill="#000072"/>
<path d="M80.7166 135.969C80.7166 135.969 80.6284 136.088 80.4573 136.316C78.6071 138.819 67.2495 154.312 64.7933 161.282C64.7933 161.282 63.1822 161.557 58.0776 168.215C52.974 174.879 46.9784 188.87 26.7698 181.543C23.5467 180.377 21.1475 178.548 19.4638 176.252C15.4894 170.853 15.4894 162.889 18.1221 154.925C21.3765 145.059 28.6669 135.203 37.4295 130.244C43.6109 126.742 49.6736 125.141 55.306 124.948C66.0522 124.584 75.2341 129.372 80.7166 135.969Z" fill="#5F7093"/>
<g opacity="0.6">
<path d="M80.7166 135.969C80.7166 135.969 80.6283 136.088 80.4573 136.316C70.5397 131.917 51.5799 126.196 37.9407 138.57C23.748 151.447 19.5511 163.53 19.4628 176.251C15.4884 170.852 15.4884 162.888 18.1211 154.924C21.3755 145.058 28.6659 135.202 37.4285 130.243C43.6099 126.741 49.6727 125.14 55.3051 124.948C66.0521 124.584 75.2341 129.373 80.7166 135.969Z" fill="white"/>
</g>
<g opacity="0.3">
<path d="M80.7168 135.969C80.7168 135.969 67.4676 153.685 64.7935 161.282C64.7935 161.282 63.1824 161.557 58.0778 168.215C52.9742 174.879 46.9785 188.87 26.77 181.543C15.9613 177.62 14.375 166.267 18.1214 154.924C19.3131 162.204 22.676 170.065 31.6557 169.883C48.3101 169.547 48.9786 144.897 61.3 141.565C69.9228 139.239 66.114 128.751 55.3044 124.948C66.0524 124.584 75.2343 129.373 80.7168 135.969Z" fill="#000072"/>
</g>
<path d="M37.7607 186.594C34.4502 186.594 30.6487 185.926 26.2467 184.343C19.1209 181.779 14.8357 176.025 14.1791 168.141C13.0122 154.133 23.3712 135.931 36.7997 128.392C56.2781 117.458 74.7974 123.996 83.7624 134.696C84.4199 135.48 84.4484 136.614 83.8332 137.432C83.6998 137.608 70.4764 155.2 67.8905 162.485C67.6643 163.124 67.1585 163.616 66.5305 163.831C66.2555 163.988 64.603 165.069 60.7022 170.12C60.0824 170.923 59.4277 171.866 58.7352 172.865C54.7636 178.594 49.2167 186.593 37.7607 186.594ZM57.2373 127.168C51.5221 127.168 45.3039 128.662 38.9524 132.227C27.0678 138.898 17.5392 155.51 18.5609 167.776C19.0813 174.021 22.1674 178.202 27.7355 180.205C44.1912 186.125 50.2522 177.383 55.1213 170.36C55.8469 169.313 56.5329 168.325 57.2216 167.432C60.1091 163.694 62.3988 161.271 64.0596 160.197C66.8817 153.268 76.0582 140.551 79.2417 136.236C74.1951 130.973 66.3567 127.168 57.2373 127.168ZM66.193 163.918C66.1921 163.919 66.1902 163.919 66.1893 163.919C66.1912 163.918 66.1921 163.918 66.193 163.918ZM66.2013 163.916C66.2003 163.916 66.2003 163.916 66.1994 163.916C66.2003 163.917 66.2013 163.916 66.2013 163.916Z" fill="#000072"/>
<path d="M120.002 246.71C127.484 233.752 124.974 218.296 114.397 212.189C103.819 206.082 89.1792 211.636 81.6976 224.594C74.2159 237.552 76.7256 253.008 87.3031 259.115C97.8806 265.222 112.52 259.668 120.002 246.71Z" fill="#5F7093"/>
<g opacity="0.3">
<path d="M120.002 246.71C127.484 233.752 124.974 218.296 114.397 212.189C103.819 206.082 89.1792 211.636 81.6976 224.594C74.2159 237.552 76.7256 253.008 87.3031 259.115C97.8806 265.222 112.52 259.668 120.002 246.71Z" fill="#000072"/>
</g>
<path d="M169.562 237.836C169.562 237.836 160.738 254.827 146.245 258.977C133.114 262.734 124.927 255.49 119.596 250.163C119.596 250.163 97.5883 246.603 79.8985 233.55C79.7376 233.42 79.5775 233.302 79.4166 233.192C79.4065 233.187 79.401 233.182 79.3909 233.177L79.0019 232.882C65.5605 222.626 54.9173 206.74 58.9386 182.541C59.1979 180.987 59.483 179.464 59.7938 177.977C62.4624 165.178 67.0226 154.773 72.5768 146.327C89.7857 120.169 116.606 112.873 126.777 111.837C145.66 109.904 185.886 122.579 190.881 171.878C190.932 172.386 190.985 172.889 191.026 173.391C191.047 173.624 191.068 173.851 191.083 174.079C195.094 221.679 169.562 237.836 169.562 237.836Z" fill="white"/>
<path d="M139.204 262.086C129.031 262.086 122.328 255.806 118.594 252.093C114.674 251.374 95.0373 247.299 78.6671 235.219L78.599 235.167C78.5181 235.101 78.4372 235.04 78.3562 234.982L78.3047 234.957L77.7475 234.533C69.944 228.579 64.1552 221.609 60.5413 213.813C56.1936 204.436 54.9659 193.801 56.8934 182.203C57.1573 180.619 57.4497 179.054 57.7642 177.554C62.58 154.474 73.808 136.479 91.1365 124.071C107.69 112.217 123.555 110.083 126.568 109.776C136.907 108.716 154.216 111.747 168.963 123.768C182.602 134.885 190.895 151.45 192.943 171.67C193.023 172.421 193.092 173.175 193.149 173.919C195.266 199.039 189.132 215.488 183.613 224.86C178.404 233.708 172.802 238.092 171.149 239.264C169.545 242.168 160.781 256.972 146.817 260.971C144.09 261.75 141.553 262.086 139.204 262.086ZM81.1609 231.907C98.2144 244.476 119.712 248.083 119.927 248.118L120.587 248.226L121.06 248.698C127.256 254.888 134.527 260.176 145.675 256.986C159.118 253.137 167.64 237.043 167.724 236.881L167.983 236.386L168.451 236.089C168.544 236.028 174.638 232.037 180.18 222.522C185.323 213.689 191.031 198.146 189.018 174.256C188.961 173.537 188.896 172.819 188.82 172.096C186.856 152.714 179.294 137.537 166.344 126.982C153.462 116.481 137.295 112.845 126.989 113.901C124.159 114.189 109.25 116.199 93.5495 127.442C77.0937 139.227 66.4192 156.371 61.8223 178.402C61.5198 179.849 61.2374 181.356 60.9827 182.885C57.6906 202.698 64.1755 218.967 80.2588 231.237L80.5798 231.481C80.7747 231.611 80.9697 231.754 81.1609 231.907Z" fill="#000072"/>
<path d="M191.082 174.08C149.033 157.193 80.1252 172.753 59.7925 177.977C70.7363 125.532 113.32 113.21 126.777 111.837C145.66 109.904 185.885 122.579 190.881 171.878C190.958 172.619 191.025 173.355 191.082 174.08Z" fill="#5F7093"/>
<path d="M156.349 170.883C156.203 170.225 156.085 169.583 155.991 168.956C155.991 168.956 155.991 168.956 155.991 168.95C155.297 164.344 155.934 160.618 157.405 157.597C163.39 145.275 183.267 144.814 183.267 144.814C182.884 143.954 182.381 143.026 181.791 142.057C180.111 139.3 177.769 136.254 175.702 133.735C173.183 130.667 171.069 128.388 171.069 128.388C171.069 128.388 190.734 124.128 204.062 132.108C209.083 135.109 213.208 139.855 215.031 147.223C215.228 147.996 215.394 148.798 215.534 149.633C221.302 184.055 161.904 196.196 156.349 170.883Z" fill="#5F7093"/>
<g opacity="0.6">
<path d="M215.032 147.223C208.042 140.248 194.818 130.948 175.703 133.735C173.184 130.667 171.07 128.388 171.07 128.388C171.07 128.388 190.735 124.128 204.063 132.108C209.084 135.109 213.208 139.855 215.032 147.223Z" fill="white"/>
</g>
<g opacity="0.6">
<path d="M195.378 145.176C160.811 150.716 156.1 168.531 155.992 168.95C155.298 164.344 155.935 160.618 157.406 157.597C163.391 145.275 183.268 144.814 183.268 144.814C182.885 143.954 182.382 143.026 181.792 142.057C189.465 142.871 195.378 145.176 195.378 145.176Z" fill="white"/>
</g>
<path d="M178.294 186.417C167.25 186.417 156.686 182.095 154.325 171.325C152.76 164.188 153.865 158.151 157.612 153.383C163.539 145.837 174.47 143.637 179.942 143C176.386 137.203 169.629 129.881 169.55 129.795C169.045 129.249 168.871 128.474 169.094 127.764C169.318 127.054 169.904 126.519 170.632 126.361C171.521 126.169 192.559 121.753 206.441 131.161C212.501 135.269 216.247 141.368 217.576 149.291C219.127 158.542 216.404 167.043 209.699 173.873C204.087 179.591 195.735 183.863 186.783 185.594C184.011 186.13 181.136 186.417 178.294 186.417ZM175.135 129.839C178.2 133.389 183.173 139.505 185.162 143.971C185.444 144.604 185.391 145.337 185.02 145.923C184.65 146.509 184.01 146.87 183.316 146.887C183.162 146.89 167.592 147.373 160.863 155.953C157.924 159.7 157.087 164.573 158.373 170.437C160.748 181.266 174.356 183.773 185.997 181.524C201.289 178.567 216.416 167.433 213.489 149.976C212.355 143.215 209.201 138.039 204.116 134.593C194.89 128.34 181.502 129.042 175.135 129.839Z" fill="#000072"/>
<path d="M183.313 142.742L197.358 144.329C197.824 144.382 198.159 144.802 198.106 145.268C198.059 145.684 197.719 145.996 197.315 146.02L197.288 146.022L183.226 146.887L183.206 146.888C182.059 146.958 181.072 146.085 181.001 144.938C180.93 143.79 181.804 142.804 182.951 142.733C183.07 142.726 183.199 142.73 183.313 142.742Z" fill="#000072"/>
<path d="M170.896 125.356L185.818 120.914C185.818 120.914 191.248 134.794 191.51 143.4C191.51 143.4 179.252 144.973 176.165 145.71C176.165 145.709 173.56 131.796 170.896 125.356Z" fill="#62ED2E"/>
<path d="M169.024 124.465C171.62 123.494 174.287 122.5 177.01 121.561C179.731 120.619 182.495 119.74 185.227 118.928L185.237 118.925C186.284 118.614 187.386 119.18 187.761 120.19C188.447 122.206 189.045 124.176 189.618 126.186C190.185 128.191 190.716 130.207 191.185 132.242C192.11 136.315 192.873 140.452 193.012 144.749L193.012 144.785C193.039 145.605 192.396 146.29 191.577 146.317C191.563 146.317 191.543 146.317 191.529 146.317C188.988 146.451 186.432 146.617 183.899 146.82C182.633 146.925 181.37 147.038 180.123 147.176C179.503 147.249 178.881 147.321 178.284 147.413C177.68 147.497 177.101 147.609 176.646 147.726L176.335 147.805C175.388 148.047 174.424 147.476 174.182 146.529C174.146 146.386 174.128 146.233 174.127 146.09C173.806 144.404 173.45 142.688 173.083 140.992C172.716 139.293 172.328 137.6 171.916 135.918C171.504 134.236 171.07 132.562 170.588 130.919C170.354 130.093 170.095 129.284 169.833 128.481L169.397 127.221C169.073 126.358 168.965 125.288 169.024 124.465ZM172.767 126.248C173.143 126.242 173.351 125.99 173.342 125.945L173.767 127.171C174.049 128.035 174.325 128.898 174.569 129.76C175.074 131.484 175.521 133.207 175.943 134.932C176.367 136.657 176.763 138.384 177.136 140.114C177.51 141.848 177.867 143.568 178.203 145.327L175.685 143.692C176.485 143.547 177.176 143.479 177.849 143.432C178.525 143.379 179.182 143.354 179.84 143.325C181.152 143.277 182.448 143.259 183.744 143.247C186.335 143.231 188.905 143.255 191.492 143.31L190.009 144.879C189.703 140.964 188.799 137.011 187.721 133.126C187.178 131.18 186.572 129.247 185.931 127.326C185.289 125.415 184.601 123.48 183.877 121.639L186.411 122.901C184.169 123.569 181.959 124.171 179.705 124.709C177.453 125.251 175.146 125.738 172.767 126.248Z" fill="#000072"/>
<path d="M96.711 263.776C93.0465 263.776 89.4574 262.889 86.2113 261.015C80.5127 257.725 76.7314 251.956 75.5644 244.772C74.4242 237.753 75.9286 230.195 79.7991 223.49C87.8748 209.502 103.892 203.577 115.502 210.279C121.201 213.57 124.982 219.338 126.149 226.523C127.29 233.542 125.785 241.1 121.915 247.804C116.097 257.882 106.155 263.776 96.711 263.776ZM104.955 211.901C97.0595 211.901 88.616 217.016 83.608 225.689C80.2423 231.519 78.9273 238.046 79.9048 244.067C80.8557 249.923 83.8765 254.589 88.41 257.207C97.9211 262.699 111.243 257.494 118.106 245.607C121.471 239.777 122.786 233.249 121.809 227.228C120.858 221.372 117.837 216.705 113.304 214.088C110.733 212.604 107.881 211.901 104.955 211.901Z" fill="#000072"/>
<path d="M173.324 223.866C172.988 231.768 169.562 237.836 169.562 237.836C169.562 237.836 160.738 254.827 146.245 258.977C133.114 262.734 124.927 255.49 119.595 250.163C119.595 250.163 97.5881 246.604 79.8982 233.55C79.7373 233.42 79.5773 233.302 79.4163 233.192C79.4062 233.187 79.4007 233.182 79.3906 233.177L79.0016 232.882C74.5398 229.182 71.7416 214.404 78.9759 203.169C78.9759 203.169 78.9759 203.169 78.9814 203.164C81.8311 198.733 86.246 194.853 92.7281 192.422C116.181 183.624 133.145 203.967 133.145 203.967C154.24 190.422 168.754 203.932 172.189 214.849C173.169 217.96 173.449 221.032 173.324 223.866Z" fill="#5F7093"/>
<g opacity="0.6">
<path d="M173.935 223.866C164.8 194.667 130.108 207.202 130.108 207.202C105.821 185.775 84.4274 197.609 79.5913 203.165C82.4411 198.734 86.8559 194.854 93.338 192.423C116.791 183.625 133.755 203.968 133.755 203.968C154.85 190.423 169.364 203.932 172.799 214.85C173.78 217.96 174.06 221.032 173.935 223.866Z" fill="white"/>
</g>
<path d="M139.203 262.086C129.005 262.086 122.292 255.773 118.565 252.065C114.362 251.149 90.829 245.642 77.6607 234.463C73.7957 231.183 70.7841 222.151 72.4339 212.716C74.2335 202.423 81.1827 194.527 92.0033 190.483C102.182 186.678 112.813 187.581 122.743 193.096C127.982 196.006 131.709 199.453 133.513 201.307C144.444 194.827 153.028 195.69 158.389 197.632C167.183 200.818 172.385 208.564 174.167 214.23C178.03 226.51 171.852 237.985 171.387 238.822C170.821 239.902 161.821 256.673 146.816 260.97C144.09 261.751 141.553 262.086 139.203 262.086ZM104.591 192.285C100.884 192.285 97.1649 192.978 93.4535 194.365C81.4227 198.862 77.6028 207.214 76.5168 213.429C75.0831 221.629 77.8695 229.202 80.3431 231.302C93.7156 242.652 119.75 248.078 120.011 248.132C120.408 248.214 120.773 248.41 121.061 248.696C127.257 254.886 134.527 260.175 145.675 256.985C159.154 253.124 167.639 237.043 167.724 236.88C167.734 236.86 167.745 236.839 167.756 236.82C167.815 236.715 173.59 226.208 170.213 215.473C168.715 210.71 164.349 204.199 156.978 201.528C150.204 199.073 142.351 200.521 134.266 205.712C133.387 206.277 132.225 206.098 131.555 205.296C131.517 205.249 127.397 200.391 120.609 196.651C115.326 193.743 109.969 192.285 104.591 192.285Z" fill="#000072"/>
<path d="M161.497 240.458C168.554 229.417 168.733 216.924 161.897 212.555C155.061 208.185 143.798 213.593 136.741 224.633C129.683 235.674 129.504 248.166 136.34 252.536C143.177 256.906 154.439 251.498 161.497 240.458Z" fill="white"/>
<g opacity="0.3">
<path d="M169.562 238.634C169.562 238.634 160.738 255.625 146.245 259.775C133.114 263.531 124.927 256.288 119.596 250.96C114.195 249.524 109.69 248.093 106.302 246.942C90.3871 241.534 83.4986 236.995 79.8985 234.347C79.6943 234.198 79.527 234.072 79.4166 233.99C79.4065 233.984 79.401 233.98 79.3909 233.974L79.0019 233.679C65.5605 223.424 54.9173 207.537 58.9386 183.339C59.1979 181.785 59.483 180.261 59.7938 178.774C62.4624 165.975 67.0226 155.57 72.5768 147.124C69.4935 173.914 68.1151 232.477 115.601 229.425C115.601 229.425 128.539 246.603 143.996 242.965C159.57 239.299 169.253 222.249 166.661 206.371C166.661 206.371 175.978 201.335 173.351 184.851C179.395 183.992 185.438 183.133 191.481 182.274C190.657 196.244 190.376 198.449 190.376 198.449C189.114 208.378 185.963 215.713 185.194 217.448C183.026 222.341 178.565 230.599 169.562 238.634Z" fill="#000072"/>
</g>
<path d="M59.5913 101.593C59.5913 112.045 52.1915 120.765 42.3465 122.797C42.3309 122.802 42.3152 122.807 42.295 122.807C40.8908 123.097 39.4351 123.247 37.9427 123.247C30.4343 123.247 23.8226 119.428 19.9411 113.63C19.7958 113.412 19.656 113.195 19.5217 112.977C19.3976 112.775 19.2781 112.573 19.1594 112.371C19.1383 112.336 19.1181 112.304 19.1024 112.267C18.9783 112.055 18.8642 111.837 18.7502 111.625C18.6362 111.412 18.5323 111.2 18.4238 110.982C18.4183 110.961 18.4081 110.941 18.398 110.925C18.2996 110.718 18.2058 110.51 18.113 110.303C17.9934 110.034 17.8794 109.759 17.7764 109.485C17.678 109.241 17.5897 108.997 17.5014 108.749C17.5014 108.744 17.4959 108.744 17.5014 108.739C17.4187 108.505 17.3405 108.273 17.2633 108.035C17.1594 107.693 17.061 107.351 16.9727 107.004C16.9258 106.823 16.8798 106.636 16.8375 106.449C16.775 106.19 16.7235 105.932 16.672 105.672C16.672 105.667 16.672 105.662 16.672 105.662C16.6205 105.398 16.5736 105.133 16.5368 104.869C16.5009 104.652 16.4743 104.439 16.4485 104.217C16.4329 104.113 16.4228 104.004 16.4127 103.896C16.3869 103.683 16.3658 103.465 16.3501 103.248C16.329 102.973 16.3143 102.699 16.3032 102.424C16.2931 102.149 16.2876 101.875 16.2876 101.595C16.2876 98.8279 16.8062 96.1749 17.7589 93.7445C20.4588 86.7906 26.6558 81.5877 34.1853 80.2718C34.1908 80.2663 34.1954 80.2663 34.2009 80.2663C35.4184 80.0539 36.6672 79.9453 37.9417 79.9453C41.232 79.9453 44.3567 80.681 47.1494 81.9923C49.9578 83.3137 52.4351 85.2209 54.4242 87.5576C57.6473 91.3334 59.5913 96.2356 59.5913 101.593Z" fill="#FFA64D"/>
<g opacity="0.6">
<path d="M47.1494 81.9905L36.6671 85.2292C36.6616 85.2292 36.657 85.2292 36.6515 85.2347C36.1595 85.323 35.6667 85.426 35.1903 85.54C28.3248 87.2394 22.7494 92.2088 20.2252 98.7065C19.2716 101.137 18.7538 103.79 18.7538 106.557C18.7538 109.033 19.1686 111.418 19.9401 113.63C19.7948 113.412 19.655 113.195 19.5208 112.977C19.3966 112.775 19.2771 112.573 19.1585 112.371C19.1373 112.336 19.1171 112.304 19.1014 112.267C18.9773 112.055 18.8633 111.837 18.7492 111.625C18.6352 111.412 18.5313 111.2 18.4228 110.982C18.4173 110.961 18.4072 110.941 18.397 110.925C18.2986 110.718 18.2049 110.51 18.112 110.303C17.9924 110.034 17.8784 109.759 17.7754 109.485C17.677 109.241 17.5887 108.997 17.5005 108.749C17.5005 108.744 17.4949 108.744 17.5005 108.739C17.4177 108.505 17.3395 108.273 17.2623 108.035C17.1584 107.693 17.06 107.351 16.9717 107.004C16.9248 106.823 16.8788 106.636 16.8365 106.449C16.774 106.19 16.7225 105.932 16.671 105.672C16.671 105.667 16.671 105.662 16.671 105.662C16.6195 105.398 16.5726 105.133 16.5358 104.869C16.5 104.652 16.4733 104.439 16.4475 104.217C16.4319 104.113 16.4218 104.004 16.4117 103.896C16.3859 103.683 16.3648 103.465 16.3492 103.248C16.328 102.973 16.3133 102.699 16.3023 102.424C16.2921 102.149 16.2866 101.875 16.2866 101.595C16.2866 98.8279 16.8053 96.1749 17.7579 93.7445C20.4578 86.7907 26.6548 81.5877 34.1843 80.2718C34.1898 80.2663 34.1944 80.2663 34.1999 80.2663C35.4174 80.0539 36.6662 79.9453 37.9408 79.9453C41.2319 79.9435 44.3566 80.6801 47.1494 81.9905Z" fill="white"/>
</g>
<g opacity="0.3">
<path d="M123.948 108.873L42.3456 122.797C42.3299 122.802 42.3143 122.807 42.2941 122.807C40.8899 123.097 39.4342 123.247 37.9417 123.247C25.9827 123.247 16.2876 113.552 16.2876 101.593C16.2876 98.8261 16.8062 96.1731 17.7589 93.7426C18.3603 94.9188 19.1116 96.0177 19.9972 96.997C24.5205 102.002 31.8321 103.961 38.4907 102.857H38.4962C42.4863 102.199 46.3669 100.484 49.2332 97.6288C51.9487 94.9243 53.6067 91.3334 54.4251 87.5557C54.6844 86.3585 54.8601 85.1465 54.9585 83.9335C55.2279 80.6176 54.9686 77.2961 54.5079 73.9948L108.606 57.2889L123.948 108.873Z" fill="#000072"/>
</g>
<path d="M37.9408 125.319C24.859 125.319 14.2158 114.676 14.2158 101.594C14.2158 88.5121 24.859 77.869 37.9408 77.869C51.0227 77.869 61.6659 88.5121 61.6659 101.594C61.6659 114.676 51.0227 125.319 37.9408 125.319ZM37.9408 82.0144C27.145 82.0144 18.3613 90.7982 18.3613 101.594C18.3613 112.39 27.145 121.174 37.9408 121.174C48.7366 121.174 57.5204 112.39 57.5204 101.594C57.5204 90.7982 48.7366 82.0144 37.9408 82.0144Z" fill="#000072"/>
<path d="M134.375 205.637C134.227 205.733 134.02 205.877 133.838 206.011C133.649 206.145 133.46 206.285 133.272 206.43C132.893 206.711 132.523 207.017 132.148 207.314C131.411 207.927 130.681 208.558 129.973 209.217C128.555 210.533 127.199 211.932 125.939 213.417C124.674 214.897 123.475 216.445 122.398 218.078C121.285 219.692 120.337 221.411 119.423 223.155L119.408 223.183C119.209 223.564 118.738 223.711 118.357 223.511C118.003 223.325 117.853 222.901 117.994 222.537C118.737 220.645 119.53 218.754 120.503 216.954C121.441 215.132 122.516 213.381 123.676 211.684C124.831 209.981 126.098 208.351 127.456 206.789C128.132 206.005 128.84 205.246 129.566 204.497C129.939 204.13 130.303 203.757 130.692 203.396C130.881 203.214 131.077 203.034 131.277 202.855C131.481 202.67 131.666 202.506 131.917 202.299L131.925 202.294C132.809 201.565 134.118 201.691 134.847 202.576C135.576 203.461 135.45 204.769 134.565 205.498C134.503 205.549 134.439 205.596 134.375 205.637Z" fill="#000072"/>
<path d="M28.7781 122.771C27.9827 122.771 27.3041 122.163 27.2314 121.356C27.1542 120.5 27.785 119.745 28.6402 119.668C34.2055 119.167 41.689 116.957 45.7323 109.279C48.435 104.145 47.2055 99.3428 45.1539 96.5602C43.0076 93.6488 39.7284 92.2823 36.3821 92.9086C32.1052 93.7068 30.4343 96.5666 29.8191 98.1998C28.7616 101.009 29.2765 103.908 30.2982 105.209C31.2573 106.432 33.2234 106.904 34.7738 106.285C36.6736 105.526 37.5601 103.427 37.2695 100.373C37.1877 99.5185 37.8148 98.7589 38.6691 98.678C39.528 98.5943 40.2829 99.2233 40.3639 100.078C40.785 104.494 39.1261 107.894 35.926 109.171C33.0698 110.312 29.6738 109.453 27.8512 107.127C25.9734 104.736 25.5854 100.614 26.9086 97.1028C28.3689 93.2249 31.5304 90.6501 35.8111 89.851C40.3574 89.0031 44.7852 90.8202 47.6561 94.7146C50.9877 99.2325 51.304 105.368 48.4828 110.727C43.7884 119.642 35.2529 122.194 28.9188 122.764C28.8719 122.769 28.825 122.771 28.7781 122.771Z" fill="#000072"/>
<g opacity="0.3">
<path d="M156.349 170.883C155.141 165.375 155.732 161.027 157.405 157.597C159.867 165.406 171.629 172.318 191.506 164.551C209.186 157.644 207.461 142.15 204.061 132.108C209.611 135.424 214.061 140.871 215.534 149.633C221.302 184.055 161.904 196.196 156.349 170.883Z" fill="#000072"/>
</g>
<path d="M81.2355 169.422C70.8461 185.449 50.0361 194.108 45.4815 186.521C43.7821 183.687 44.1398 181.345 45.6994 179.132C50.0932 172.894 64.0431 167.701 68.3486 155.441C69.6801 151.644 70.4112 147.959 70.7266 144.488C71.9698 130.627 66.5756 120.237 66.5756 120.237L83.8986 119.232C83.8986 119.231 94.1114 149.545 81.2355 169.422Z" fill="#62ED2E"/>
<path d="M51.5369 191.118C51.456 191.118 51.3769 191.117 51.2969 191.116C46.9749 191.042 44.9022 189.084 43.9247 187.455C41.977 184.209 42.0984 181.023 44.286 177.987C46.0617 175.522 48.9455 173.377 52.2845 170.893C57.8139 166.779 64.0817 162.118 66.6372 154.843C72.9446 136.892 65.0473 121.229 64.9664 121.072C64.685 120.527 64.6978 119.875 65.0022 119.342C65.3066 118.808 65.8593 118.464 66.4717 118.429L83.7937 117.423C84.6075 117.375 85.3561 117.88 85.6172 118.654C86.0458 119.926 95.9606 150.032 82.7555 170.408C74.4205 183.269 60.1441 191.118 51.5369 191.118ZM69.2911 121.897C71.4291 127.295 75.4348 140.743 70.058 156.045C67.1347 164.364 60.1009 169.597 54.4483 173.803C47.1799 179.21 44.6575 181.627 47.0337 185.588C47.7685 186.813 49.2242 187.453 51.3585 187.49C51.4238 187.49 51.49 187.491 51.5553 187.491C59.2264 187.491 72.2816 179.898 79.7099 168.435C90.4892 151.802 84.3004 127.065 82.579 121.126L69.2911 121.897Z" fill="#000072"/>
<g opacity="0.3">
<path d="M81.2355 169.422C70.8461 185.449 50.0361 194.108 45.4815 186.521C43.7821 183.687 44.1398 181.345 45.6994 179.132C54.6919 188.977 72.7699 170.683 76.6735 161.686C78.9421 156.457 77.5351 150.361 73.2186 146.637L70.7266 144.488C71.9698 130.628 66.5756 120.238 66.5756 120.238L83.8986 119.233C83.8986 119.231 94.1114 149.545 81.2355 169.422Z" fill="#000072"/>
</g>
<path d="M144.955 31.2143C147.214 44.7293 159.752 53.7899 172.959 51.4514C178.974 50.3865 184.096 47.1349 187.673 42.6364C191.949 37.266 194.018 30.1053 192.788 22.745C190.528 9.22546 177.99 0.164892 164.778 2.50429C158.933 3.53973 153.938 6.63134 150.377 10.9331C145.896 16.3503 143.696 23.6812 144.955 31.2143Z" fill="#5F7093"/>
<g opacity="0.3">
<path d="M145.308 30.7306C147.566 44.2456 160.105 53.3062 173.312 50.9677C179.326 49.9028 184.449 46.6512 188.026 42.1527C180.972 29.9499 169.347 16.6326 150.73 10.4494C146.248 15.8657 144.049 23.1975 145.308 30.7306Z" fill="#000072"/>
</g>
<g opacity="0.6">
<path d="M166.97 6.69388C161.124 7.72932 156.129 10.8209 152.568 15.1227C148.086 20.539 145.887 27.8708 147.146 35.4039C147.461 37.2909 147.983 39.0877 148.674 40.7825C146.847 37.9796 145.546 34.7519 144.955 31.2143C143.696 23.6812 145.895 16.3494 150.378 10.9331C153.939 6.63042 158.934 3.53882 164.779 2.50429C176.145 0.492265 187.006 6.92101 191.259 17.3637C186.104 9.4572 176.724 4.96691 166.97 6.69388Z" fill="white"/>
</g>
<path d="M168.776 53.9563C163.464 53.9563 158.284 52.3177 153.834 49.1745C147.954 45.0208 144.052 38.7668 142.849 31.5647C140.401 16.9196 150.073 2.94018 164.409 0.402154C171.267 -0.811685 178.192 0.743316 183.909 4.78209C189.788 8.93581 193.69 15.1898 194.894 22.3919C197.342 37.0371 187.67 51.0165 173.333 53.5545C171.813 53.823 170.289 53.9563 168.776 53.9563ZM168.957 4.27172C167.694 4.27172 166.423 4.38299 165.154 4.60737C153.115 6.73894 144.999 18.5159 147.062 30.8603C148.076 36.9304 151.356 42.195 156.298 45.6857C161.077 49.0614 166.863 50.3617 172.589 49.3483C184.629 47.2168 192.745 35.4398 190.681 23.0954C189.667 17.0253 186.387 11.7607 181.445 8.27003C177.724 5.64281 173.394 4.27172 168.957 4.27172Z" fill="#000072"/>
<path d="M86.3141 37.416C88.3942 52.0804 78.4637 65.7177 64.133 67.876C57.6068 68.859 51.2857 67.2865 46.1462 63.8997C40.0043 59.8591 35.5471 53.2161 34.4142 45.2305C32.3332 30.5606 42.2637 16.9233 56.599 14.765C62.9413 13.8096 69.0804 15.2616 74.1389 18.4525C80.5079 22.4692 85.1545 29.2428 86.3141 37.416Z" fill="#5F7093"/>
<g opacity="0.3">
<path d="M86.3144 37.416C88.3945 52.0804 78.464 65.7177 64.1334 67.876C57.6071 68.859 51.286 67.2865 46.1465 63.8997C49.4202 48.9272 57.026 31.2328 74.1402 18.4516C80.5082 22.4692 85.1548 29.2428 86.3144 37.416Z" fill="#000072"/>
</g>
<g opacity="0.6">
<path d="M55.7128 19.8254C62.0551 18.87 68.1941 20.322 73.2527 23.5129C79.6217 27.5306 84.2674 34.3032 85.427 42.4773C85.7176 44.5252 85.7654 46.551 85.6081 48.5309C86.5728 45.0209 86.8578 41.2552 86.3134 37.4169C85.1539 29.2428 80.5072 22.4701 74.1392 18.4525C69.0806 15.2616 62.9425 13.8105 56.5992 14.765C44.2668 16.6216 35.2017 26.9761 34.2324 39.1733C36.9544 29.2713 45.1303 21.4191 55.7128 19.8254Z" fill="white"/>
</g>
<path d="M60.2627 70.3027C54.3084 70.3027 48.5243 68.3909 43.6349 64.7485C37.4278 60.1248 33.4028 53.2997 32.3012 45.5284C30.0602 29.7301 40.8174 14.982 56.28 12.6536C63.6706 11.54 71.064 13.4012 77.0936 17.8934C83.3008 22.517 87.3258 29.343 88.4283 37.1134C90.6693 52.9117 79.9131 67.6589 64.4495 69.9873C63.0508 70.1988 61.6522 70.3027 60.2627 70.3027ZM60.4567 16.6115C59.2815 16.6115 58.0989 16.6998 56.9154 16.8772C43.7618 18.858 34.6167 31.4415 36.5294 44.9279C37.4701 51.5627 40.9001 57.3854 46.1858 61.323C51.2959 65.1292 57.5564 66.7062 63.8132 65.7646C76.9668 63.7838 86.1128 51.2004 84.1992 37.7139C83.2585 31.0792 79.8285 25.2564 74.5418 21.3188C70.3991 18.2327 65.4987 16.6115 60.4567 16.6115Z" fill="#000072"/>
<path d="M189.909 66.9334C189.909 66.9334 229.568 124.465 137.12 139.738C43.425 155.218 40.8824 89.771 54.4186 54.5761C67.2291 21.2664 90.464 12.7668 120.735 10.5782C152.501 8.282 185.986 31.1463 189.909 66.9334Z" fill="white"/>
<path d="M111.017 142.319C102.365 142.319 94.5332 141.419 87.5813 139.62C75.7325 136.553 66.3584 130.867 59.7182 122.718C43.781 103.157 46.7724 73.7355 54.1768 54.4833C60.2359 38.7282 68.9764 27.6721 80.8978 20.6834C90.9699 14.7788 103.25 11.5833 120.716 10.3198C136.479 9.18043 152.957 14.2648 165.921 24.2688C179.69 34.8945 188.296 50.0114 190.159 66.8405C190.963 68.0461 204.105 88.2482 195.936 107.476C189.021 123.751 169.247 134.691 137.163 139.992C127.779 141.544 119.044 142.319 111.017 142.319ZM125.036 10.6839C123.6 10.6839 122.172 10.7345 120.755 10.8375C90.3565 13.0353 67.484 21.3298 54.6614 54.6699C47.3067 73.7925 44.3245 103.003 60.1209 122.391C74.3238 139.823 100.216 145.573 137.079 139.483C168.975 134.214 188.616 123.379 195.458 107.28C203.731 87.8151 189.837 67.2865 189.696 67.0814L189.66 67.0272L189.652 66.9619C185.741 31.2888 153.924 10.6839 125.036 10.6839Z" fill="#000072"/>
<path d="M157.524 87.7112C157.524 87.7112 153.059 76.348 145.542 68.8433C141.472 64.7797 140.311 58.4282 143.029 53.3053C144.758 50.0472 148.032 47.272 154.088 46.7276C170.234 45.2765 183.391 65.0814 184.79 77.8837C186.19 90.686 179.267 97.3777 174.247 98.29C169.225 99.2022 161.13 98.3773 157.524 87.7112Z" fill="#5F7093"/>
<path d="M106.773 96.6899C106.773 96.6899 109.108 83.643 115.697 73.9028C119.265 68.6291 119.096 61.6642 114.921 56.9477C112.266 53.9481 108.013 51.8367 101.198 52.7554C83.0267 55.206 73.0181 79.2685 74.3993 93.0714C75.7805 106.875 84.9597 112.206 90.7153 111.929C96.4709 111.652 105.227 108.791 106.773 96.6899Z" fill="#5F7093"/>
<g opacity="0.3">
<path d="M54.4185 54.5761C61.4339 36.3355 71.575 25.5351 84.2853 19.1367C75.4933 25.4017 68.316 34.6876 63.022 48.4536C50.2206 81.7404 52.6253 143.639 141.241 128.998C181.29 122.382 195.123 107.38 198.357 93.0631C198.736 110.376 187.702 131.382 137.121 139.738C43.4259 155.218 40.8833 89.771 54.4185 54.5761Z" fill="#000072"/>
</g>
<g opacity="0.3">
<path d="M115.68 90.3393C116.072 89.3158 117.459 89.2202 117.946 90.1986C119.24 92.8056 121.847 96.4039 126.094 95.3832C132.582 93.8236 128.938 85.7754 128.938 85.7754L134.304 85.0517L139.695 84.3244C139.695 84.3244 139.676 94.5905 145.721 92.9463C149.242 91.9881 150.365 89.1576 150.689 86.9608C150.847 85.8876 152.192 85.5382 152.832 86.4017C155.122 89.4933 157.421 95.2627 148.762 100.598L135.665 95.7721L121.46 103.14C113.242 100.374 114.293 93.9624 115.68 90.3393Z" fill="#000072"/>
</g>
<path d="M123.23 78.6451C126.628 75.9986 133.062 75.2565 133.062 75.2565C133.062 75.2565 139.464 74.2679 143.408 75.9241C144.721 76.4758 145.414 77.9655 145.067 79.3752C144.338 82.3307 142.028 87.4399 134.731 88.4248C127.435 89.4087 123.928 85.084 122.487 82.4209C121.8 81.15 122.099 79.526 123.23 78.6451Z" fill="#000072"/>
<path d="M137.393 87.0077L137.423 87.3397L137.471 87.7342C137.505 87.9999 137.554 88.2675 137.599 88.5342C137.693 89.0685 137.818 89.5945 137.965 90.1039C138.246 91.1292 138.669 92.0626 139.167 92.8562C140.196 94.4231 141.603 95.2627 143.618 95.3308C144.586 95.3749 145.754 95.237 146.755 94.9905C147.764 94.7404 148.669 94.3542 149.353 93.7831C150.046 93.2139 150.475 92.447 150.807 91.5072C151.144 90.571 151.362 89.4317 151.592 88.1848L151.608 88.0983C151.661 87.8096 151.938 87.6192 152.225 87.6726C152.354 87.6965 152.464 87.7645 152.54 87.8583C153.495 89.0252 153.911 90.4699 153.841 92.0249C153.769 93.5762 153.013 95.1763 151.894 96.3717C150.766 97.5709 149.352 98.3543 147.96 98.8518C146.546 99.3282 145.202 99.6206 143.647 99.7061C142.883 99.753 142.083 99.6886 141.285 99.5525C140.485 99.3925 139.682 99.1507 138.92 98.7838C138.167 98.4104 137.443 97.9525 136.824 97.3952C136.205 96.8398 135.665 96.2228 135.201 95.5754C134.285 94.2751 133.688 92.8663 133.273 91.4676C133.069 90.7642 132.916 90.0579 132.798 89.348C132.737 88.9931 132.696 88.6353 132.661 88.2739L132.616 87.7259C132.605 87.5273 132.595 87.3783 132.59 87.1134C132.564 85.7883 133.618 84.6931 134.943 84.6674C136.208 84.6426 137.264 85.6026 137.379 86.8431L137.393 87.0077Z" fill="#000072"/>
<path d="M137.252 85.9465C137.319 86.2233 137.348 86.3805 137.391 86.5902L137.491 87.1714C137.55 87.5567 137.602 87.9401 137.632 88.3254C137.694 89.096 137.717 89.8731 137.682 90.6584C137.604 92.2235 137.325 93.8456 136.667 95.4135C136.018 96.9731 134.966 98.4849 133.572 99.5636C132.892 100.125 132.129 100.541 131.367 100.911C130.594 101.244 129.808 101.519 129.022 101.678C127.429 102.013 125.971 102.103 124.405 102.035C124.02 102.029 123.618 101.963 123.228 101.921C122.829 101.844 122.438 101.794 122.038 101.679C121.245 101.487 120.446 101.186 119.694 100.766C118.186 99.9415 116.881 98.5548 116.325 96.974C116.039 96.1896 115.921 95.3795 115.932 94.5942C115.958 93.8015 116.095 93.0548 116.439 92.3072C116.561 92.0414 116.876 91.9256 117.142 92.0479C117.267 92.1058 117.359 92.2051 117.408 92.3228L117.439 92.3964C117.959 93.6369 118.481 94.7652 119.095 95.6305C119.71 96.4968 120.396 97.1533 121.325 97.5258C121.782 97.717 122.28 97.8513 122.818 97.9175C123.077 97.9681 123.364 97.9663 123.634 97.9938C123.921 97.9865 124.194 98.0104 124.486 97.9911C125.629 97.9515 126.889 97.7612 127.926 97.4412C128.461 97.2849 128.942 97.0678 129.404 96.8444C129.84 96.5878 130.269 96.3331 130.611 96.0002C131.32 95.3611 131.846 94.5657 132.207 93.6158C132.555 92.6631 132.766 91.5807 132.8 90.4405C132.825 89.8722 132.819 89.2919 132.775 88.7107C132.752 88.4211 132.73 88.1305 132.695 87.8445L132.638 87.4215L132.579 87.0684L132.552 86.9084C132.331 85.6017 133.211 84.363 134.518 84.1423C135.768 83.9345 136.955 84.7363 137.252 85.9465Z" fill="#000072"/>
<path d="M122.057 105.86C123.431 110.716 126.962 116.371 136.01 115.15C139.432 114.689 141.936 113.514 143.761 111.965C150.134 106.556 148.24 96.6053 148.24 96.6053C137.431 99.9774 135.495 91.4364 135.149 88.3733C135.958 103.623 121.188 99.4523 121.188 99.4523C121.188 99.4523 121.093 102.459 122.057 105.86Z" fill="#000072"/>
<path d="M122.057 105.86C123.431 110.716 126.962 116.371 136.01 115.15C139.432 114.689 141.936 113.513 143.761 111.965C143.761 111.965 136.93 97.1561 122.057 105.86Z" fill="#FF4379"/>
<path d="M133.595 117.189C130.04 117.189 127.055 116.118 124.696 113.99C119.09 108.934 119.309 99.7787 119.321 99.3916C119.34 98.8169 119.621 98.2826 120.084 97.9423C120.549 97.6021 121.143 97.4954 121.696 97.6518C121.75 97.6665 127.54 99.2279 130.844 96.4628C132.654 94.9482 133.474 92.2907 133.289 88.5563C133.211 87.8638 133.205 87.4114 133.204 87.3424C133.198 86.3419 133.98 85.5143 134.979 85.4637C135.977 85.4141 136.839 86.1598 136.933 87.1548C136.967 87.5208 136.994 87.8795 137.013 88.2326C137.194 89.7664 137.828 92.847 140.029 94.4443C141.797 95.7289 144.373 95.8558 147.684 94.8232C148.192 94.665 148.744 94.7303 149.201 95.0043C149.658 95.2783 149.976 95.7335 150.075 96.2568C150.142 96.6035 151.642 104.818 147.238 110.933C144.808 114.306 141.113 116.349 136.257 117.003C135.337 117.127 134.45 117.189 133.595 117.189ZM123.171 101.708C123.441 104.316 124.327 108.633 127.21 111.225C129.282 113.087 132.158 113.785 135.758 113.299C139.557 112.787 142.4 111.256 144.206 108.748C146.531 105.521 146.736 101.368 146.612 98.9493C143.08 99.6445 140.128 99.1433 137.813 97.4522C137.084 96.9189 136.469 96.3009 135.952 95.6388C135.317 97.1212 134.408 98.358 133.226 99.3419C130.077 101.965 125.83 102.014 123.171 101.708Z" fill="#000072"/>
<path d="M135.698 79.0893C138.911 78.7645 141.458 77.9363 141.387 77.2395C141.317 76.5428 138.655 76.2412 135.443 76.5661C132.23 76.8909 129.683 77.7191 129.754 78.4159C129.824 79.1126 132.485 79.4142 135.698 79.0893Z" fill="white"/>
<path d="M133.211 79.4855C131.655 79.4855 130.281 79.3117 129.751 78.8759C129.6 78.7517 129.516 78.6064 129.5 78.4446C129.387 77.2436 133.329 76.5264 135.429 76.3139C137.818 76.073 140.591 76.1282 141.398 76.7921C141.55 76.9163 141.634 77.0616 141.649 77.2234C141.762 78.4244 137.82 79.1425 135.72 79.354C134.897 79.4368 134.029 79.4855 133.211 79.4855ZM137.915 76.7002C137.196 76.7002 136.377 76.7397 135.482 76.8298C131.813 77.1995 129.987 78.0952 130.016 78.3959C130.017 78.4069 130.031 78.4354 130.08 78.4749C130.567 78.875 132.69 79.1379 135.668 78.8382C139.337 78.4685 141.162 77.5728 141.133 77.2712C141.133 77.2602 141.118 77.2317 141.069 77.1921C140.73 76.9126 139.589 76.7002 137.915 76.7002Z" fill="#000072"/>
<path d="M111.018 144.194C102.204 144.194 94.2141 143.275 87.1113 141.436C74.8672 138.268 65.162 132.368 58.2643 123.903C41.8195 103.72 44.8413 73.5304 52.4259 53.8101C58.6441 37.6422 67.6467 26.2771 79.9497 19.0649C90.283 13.0077 102.814 9.734 120.582 8.44935C136.8 7.27505 153.744 12.5019 167.068 22.7846C181.12 33.6282 189.951 49.0237 191.973 66.1811C194.115 69.4797 205.842 88.9636 197.664 108.212C190.481 125.118 170.229 136.433 137.47 141.846C127.987 143.411 119.152 144.194 111.018 144.194ZM125.05 12.5598C123.653 12.5598 122.269 12.6095 120.889 12.7088C91.2044 14.8551 68.8789 22.9262 56.4114 55.343C49.2368 73.9975 46.285 102.439 61.5748 121.205C75.3215 138.076 100.622 143.604 136.772 137.63C167.976 132.475 187.136 122.024 193.719 106.568C201.597 88.0771 188.284 68.3403 188.148 68.1435C187.948 67.8529 187.822 67.5164 187.785 67.166C183.992 32.5532 153.1 12.5598 125.05 12.5598Z" fill="#000072"/>
<path d="M166.215 81.0772C170.688 79.7771 172.844 73.6645 171.031 67.4243C169.217 61.1841 164.121 57.1794 159.647 58.4795C155.174 59.7796 153.018 65.8922 154.832 72.1324C156.645 78.3725 161.742 82.3773 166.215 81.0772Z" fill="#000072"/>
<path d="M158.38 76.9957C160.109 76.5512 161.096 74.5811 160.585 72.5954C160.075 70.6097 158.259 69.3604 156.531 69.8049C154.803 70.2495 153.815 72.2196 154.326 74.2053C154.837 76.1909 156.652 77.4403 158.38 76.9957Z" fill="white"/>
<g opacity="0.3">
<path d="M166.306 72.0536C167.541 71.6527 168.857 72.3525 169.247 73.615C169.636 74.8785 168.95 76.2276 167.716 76.6276C166.481 77.0285 165.165 76.3287 164.775 75.0661C164.385 73.8026 165.071 72.4536 166.306 72.0536Z" fill="white"/>
</g>
<path d="M110.694 77.521C112.41 70.4529 109.693 63.7261 104.627 62.4961C99.5599 61.2662 94.0616 65.999 92.3459 73.067C90.6301 80.1351 93.3466 86.8619 98.4134 88.0919C103.48 89.3218 108.978 84.589 110.694 77.521Z" fill="#000072"/>
<path d="M101.933 79.0428C102.405 76.7969 101.203 74.6433 99.2481 74.2326C97.2934 73.822 95.3262 75.3097 94.8544 77.5557C94.3825 79.8016 95.5846 81.9552 97.5393 82.3659C99.494 82.7766 101.461 81.2888 101.933 79.0428Z" fill="white"/>
<g opacity="0.3">
<path d="M97.8475 78.0244C96.447 77.6382 95.0097 78.486 94.6382 79.9178C94.2667 81.3496 95.1007 82.8236 96.5012 83.2099C97.9017 83.5961 99.339 82.7482 99.7105 81.3165C100.083 79.8847 99.248 78.4106 97.8475 78.0244Z" fill="white"/>
</g>
<path d="M182.488 70.3151C181.772 66.4064 179.23 62.775 175.294 60.2229C171.216 57.5887 166.035 56.2874 160.662 56.5751C151.135 57.0854 143.178 62.4274 140.986 69.6494C139.312 68.4832 136.627 67.7838 134.148 67.9166C131.668 68.0494 129.073 69.0316 127.533 70.37C124.582 63.4234 116.101 58.9618 106.573 59.4721C101.224 59.7586 96.1874 61.5893 92.4139 64.644C88.7743 67.6198 86.6338 71.502 86.3395 75.4648L82.9876 75.6443L83.1601 78.8645L86.512 78.6849C87.2279 82.5936 89.7708 86.225 93.7065 88.7771C97.7847 91.4113 102.966 92.7126 108.338 92.4249C120.001 91.8002 129.088 83.9219 128.601 74.8339L128.6 74.816C128.505 73.0449 131.033 70.8104 134.293 70.6358C137.553 70.4612 140.306 72.4129 140.4 74.184L140.401 74.2019C140.888 83.2898 150.765 90.1525 162.427 89.5279C167.777 89.2414 172.813 87.4107 176.585 84.3381C180.226 81.3802 182.366 77.4801 182.66 73.5173L186.012 73.3378L185.839 70.1176L182.487 70.2972L182.488 70.3151Z" fill="#000072"/>
<ellipse cx="162" cy="73.5" rx="14" ry="10.5" fill="#0B317E"/>
<ellipse cx="108" cy="75.5" rx="14" ry="10.5" fill="#0B317E"/>
</svg>
